<mxfile host="app.diagrams.net" modified="2022-03-31T12:05:44.717Z" agent="5.0 (Windows NT 10.0; Win64; x64) AppleWebKit/537.36 (KHTML, like Gecko) Chrome/99.0.4844.51 Safari/537.36" etag="7M6JFYYpcnMRRQVc-H8m" version="17.3.0" type="github">
  <diagram id="OrxgK6PP7v0SjVbYmMLs" name="Page-1">
    <mxGraphModel dx="975" dy="603" grid="1" gridSize="10" guides="1" tooltips="1" connect="1" arrows="1" fold="1" page="1" pageScale="1" pageWidth="827" pageHeight="1169" math="0" shadow="0">
      <root>
        <mxCell id="0" />
        <mxCell id="1" parent="0" />
        <mxCell id="CJIQHJOEbOUhopINVzEr-6" value="" style="endArrow=none;html=1;rounded=0;" edge="1" parent="1">
          <mxGeometry width="50" height="50" relative="1" as="geometry">
            <mxPoint x="110" y="520" as="sourcePoint" />
            <mxPoint x="110" y="80" as="targetPoint" />
          </mxGeometry>
        </mxCell>
        <mxCell id="CJIQHJOEbOUhopINVzEr-19" value="" style="edgeStyle=orthogonalEdgeStyle;rounded=0;orthogonalLoop=1;jettySize=auto;html=1;" edge="1" parent="1" source="CJIQHJOEbOUhopINVzEr-15">
          <mxGeometry relative="1" as="geometry">
            <mxPoint x="260" y="200" as="targetPoint" />
          </mxGeometry>
        </mxCell>
        <mxCell id="CJIQHJOEbOUhopINVzEr-15" value="while P" style="rounded=0;whiteSpace=wrap;html=1;fillColor=#FFCCCC;" vertex="1" parent="1">
          <mxGeometry x="110" y="170" width="120" height="60" as="geometry" />
        </mxCell>
        <mxCell id="CJIQHJOEbOUhopINVzEr-16" value="" style="endArrow=none;html=1;rounded=0;entryX=0.75;entryY=0;entryDx=0;entryDy=0;exitX=0.75;exitY=1;exitDx=0;exitDy=0;" edge="1" parent="1" source="CJIQHJOEbOUhopINVzEr-15" target="CJIQHJOEbOUhopINVzEr-15">
          <mxGeometry width="50" height="50" relative="1" as="geometry">
            <mxPoint x="260" y="230" as="sourcePoint" />
            <mxPoint x="310" y="180" as="targetPoint" />
          </mxGeometry>
        </mxCell>
        <mxCell id="CJIQHJOEbOUhopINVzEr-17" value="初始化A、B、C变量" style="rounded=0;whiteSpace=wrap;html=1;fillColor=#FFCCCC;" vertex="1" parent="1">
          <mxGeometry x="110" y="100" width="120" height="60" as="geometry" />
        </mxCell>
        <mxCell id="CJIQHJOEbOUhopINVzEr-20" value="" style="endArrow=none;html=1;rounded=0;" edge="1" parent="1">
          <mxGeometry width="50" height="50" relative="1" as="geometry">
            <mxPoint x="260" y="600" as="sourcePoint" />
            <mxPoint x="260" y="120" as="targetPoint" />
          </mxGeometry>
        </mxCell>
        <mxCell id="CJIQHJOEbOUhopINVzEr-21" value="A&amp;gt;0" style="shape=partialRectangle;whiteSpace=wrap;html=1;bottom=0;right=0;fillColor=none;" vertex="1" parent="1">
          <mxGeometry x="260" y="180" width="126" height="60" as="geometry" />
        </mxCell>
        <mxCell id="CJIQHJOEbOUhopINVzEr-26" value="" style="endArrow=none;html=1;rounded=0;entryX=1;entryY=1;entryDx=0;entryDy=0;" edge="1" parent="1" target="CJIQHJOEbOUhopINVzEr-21">
          <mxGeometry width="50" height="50" relative="1" as="geometry">
            <mxPoint x="260" y="240" as="sourcePoint" />
            <mxPoint x="310" y="190" as="targetPoint" />
          </mxGeometry>
        </mxCell>
        <mxCell id="CJIQHJOEbOUhopINVzEr-27" value="" style="endArrow=none;html=1;rounded=0;entryX=1;entryY=0;entryDx=0;entryDy=0;" edge="1" parent="1" target="CJIQHJOEbOUhopINVzEr-21">
          <mxGeometry width="50" height="50" relative="1" as="geometry">
            <mxPoint x="346" y="210" as="sourcePoint" />
            <mxPoint x="286" y="280" as="targetPoint" />
          </mxGeometry>
        </mxCell>
        <mxCell id="CJIQHJOEbOUhopINVzEr-28" value="" style="endArrow=none;html=1;rounded=0;exitX=1;exitY=1;exitDx=0;exitDy=0;" edge="1" parent="1" source="CJIQHJOEbOUhopINVzEr-21">
          <mxGeometry width="50" height="50" relative="1" as="geometry">
            <mxPoint x="295" y="260" as="sourcePoint" />
            <mxPoint x="345" y="210" as="targetPoint" />
          </mxGeometry>
        </mxCell>
        <mxCell id="CJIQHJOEbOUhopINVzEr-31" value="" style="endArrow=none;html=1;rounded=0;entryX=1;entryY=0;entryDx=0;entryDy=0;exitX=1.294;exitY=0.975;exitDx=0;exitDy=0;exitPerimeter=0;" edge="1" parent="1" source="CJIQHJOEbOUhopINVzEr-34" target="CJIQHJOEbOUhopINVzEr-21">
          <mxGeometry width="50" height="50" relative="1" as="geometry">
            <mxPoint x="446" y="180" as="sourcePoint" />
            <mxPoint x="286" y="280" as="targetPoint" />
          </mxGeometry>
        </mxCell>
        <mxCell id="CJIQHJOEbOUhopINVzEr-32" value="" style="endArrow=none;html=1;rounded=0;entryX=1;entryY=1;entryDx=0;entryDy=0;exitX=1.2;exitY=0;exitDx=0;exitDy=0;exitPerimeter=0;" edge="1" parent="1" source="CJIQHJOEbOUhopINVzEr-35" target="CJIQHJOEbOUhopINVzEr-21">
          <mxGeometry width="50" height="50" relative="1" as="geometry">
            <mxPoint x="446" y="240" as="sourcePoint" />
            <mxPoint x="286" y="280" as="targetPoint" />
          </mxGeometry>
        </mxCell>
        <mxCell id="CJIQHJOEbOUhopINVzEr-34" value="T" style="text;html=1;align=center;verticalAlign=middle;resizable=0;points=[];autosize=1;strokeColor=none;fillColor=none;" vertex="1" parent="1">
          <mxGeometry x="406" y="160" width="20" height="20" as="geometry" />
        </mxCell>
        <mxCell id="CJIQHJOEbOUhopINVzEr-35" value="F" style="text;html=1;align=center;verticalAlign=middle;resizable=0;points=[];autosize=1;strokeColor=none;fillColor=none;" vertex="1" parent="1">
          <mxGeometry x="406" y="240" width="20" height="20" as="geometry" />
        </mxCell>
        <mxCell id="CJIQHJOEbOUhopINVzEr-36" value="B&amp;gt;0" style="shape=partialRectangle;whiteSpace=wrap;html=1;bottom=0;right=0;fillColor=none;" vertex="1" parent="1">
          <mxGeometry x="260" y="330" width="126" height="60" as="geometry" />
        </mxCell>
        <mxCell id="CJIQHJOEbOUhopINVzEr-37" value="" style="endArrow=none;html=1;rounded=0;entryX=1;entryY=1;entryDx=0;entryDy=0;" edge="1" parent="1" target="CJIQHJOEbOUhopINVzEr-36">
          <mxGeometry width="50" height="50" relative="1" as="geometry">
            <mxPoint x="260" y="390" as="sourcePoint" />
            <mxPoint x="310" y="340" as="targetPoint" />
          </mxGeometry>
        </mxCell>
        <mxCell id="CJIQHJOEbOUhopINVzEr-38" value="" style="endArrow=none;html=1;rounded=0;entryX=1;entryY=0;entryDx=0;entryDy=0;" edge="1" parent="1" target="CJIQHJOEbOUhopINVzEr-36">
          <mxGeometry width="50" height="50" relative="1" as="geometry">
            <mxPoint x="346" y="360" as="sourcePoint" />
            <mxPoint x="286" y="430" as="targetPoint" />
          </mxGeometry>
        </mxCell>
        <mxCell id="CJIQHJOEbOUhopINVzEr-39" value="" style="endArrow=none;html=1;rounded=0;exitX=1;exitY=1;exitDx=0;exitDy=0;" edge="1" parent="1" source="CJIQHJOEbOUhopINVzEr-36">
          <mxGeometry width="50" height="50" relative="1" as="geometry">
            <mxPoint x="295" y="410" as="sourcePoint" />
            <mxPoint x="345" y="360" as="targetPoint" />
          </mxGeometry>
        </mxCell>
        <mxCell id="CJIQHJOEbOUhopINVzEr-40" value="" style="endArrow=none;html=1;rounded=0;entryX=1;entryY=0;entryDx=0;entryDy=0;" edge="1" parent="1" target="CJIQHJOEbOUhopINVzEr-36">
          <mxGeometry width="50" height="50" relative="1" as="geometry">
            <mxPoint x="596" y="330" as="sourcePoint" />
            <mxPoint x="286" y="430" as="targetPoint" />
          </mxGeometry>
        </mxCell>
        <mxCell id="CJIQHJOEbOUhopINVzEr-41" value="" style="endArrow=none;html=1;rounded=0;entryX=1;entryY=1;entryDx=0;entryDy=0;" edge="1" parent="1" target="CJIQHJOEbOUhopINVzEr-36">
          <mxGeometry width="50" height="50" relative="1" as="geometry">
            <mxPoint x="446" y="390" as="sourcePoint" />
            <mxPoint x="286" y="430" as="targetPoint" />
          </mxGeometry>
        </mxCell>
        <mxCell id="CJIQHJOEbOUhopINVzEr-42" value="F" style="text;html=1;align=center;verticalAlign=middle;resizable=0;points=[];autosize=1;strokeColor=none;fillColor=none;" vertex="1" parent="1">
          <mxGeometry x="406" y="390" width="20" height="20" as="geometry" />
        </mxCell>
        <mxCell id="CJIQHJOEbOUhopINVzEr-43" value="A1" style="rounded=0;whiteSpace=wrap;html=1;fillColor=#FFCCCC;" vertex="1" parent="1">
          <mxGeometry x="426" y="150" width="120" height="60" as="geometry" />
        </mxCell>
        <mxCell id="CJIQHJOEbOUhopINVzEr-44" value="A2" style="rounded=0;whiteSpace=wrap;html=1;fillColor=#FFCCCC;" vertex="1" parent="1">
          <mxGeometry x="426" y="220" width="120" height="60" as="geometry" />
        </mxCell>
        <mxCell id="CJIQHJOEbOUhopINVzEr-45" value="T" style="text;html=1;align=center;verticalAlign=middle;resizable=0;points=[];autosize=1;strokeColor=none;fillColor=none;" vertex="1" parent="1">
          <mxGeometry x="406" y="310" width="20" height="20" as="geometry" />
        </mxCell>
        <mxCell id="CJIQHJOEbOUhopINVzEr-47" value="B2" style="rounded=0;whiteSpace=wrap;html=1;fillColor=#FFCCCC;" vertex="1" parent="1">
          <mxGeometry x="426" y="360" width="120" height="60" as="geometry" />
        </mxCell>
        <mxCell id="CJIQHJOEbOUhopINVzEr-48" value="B1" style="rounded=0;whiteSpace=wrap;html=1;fillColor=#FFCCCC;" vertex="1" parent="1">
          <mxGeometry x="570" y="300" width="120" height="60" as="geometry" />
        </mxCell>
        <mxCell id="CJIQHJOEbOUhopINVzEr-49" value="" style="endArrow=none;html=1;rounded=0;" edge="1" parent="1">
          <mxGeometry width="50" height="50" relative="1" as="geometry">
            <mxPoint x="570" y="540" as="sourcePoint" />
            <mxPoint x="570" y="270" as="targetPoint" />
          </mxGeometry>
        </mxCell>
        <mxCell id="CJIQHJOEbOUhopINVzEr-50" value="C&amp;gt;0" style="shape=partialRectangle;whiteSpace=wrap;html=1;bottom=0;right=0;fillColor=none;" vertex="1" parent="1">
          <mxGeometry x="570" y="420" width="126" height="60" as="geometry" />
        </mxCell>
        <mxCell id="CJIQHJOEbOUhopINVzEr-51" value="" style="endArrow=none;html=1;rounded=0;entryX=1;entryY=1;entryDx=0;entryDy=0;" edge="1" parent="1" target="CJIQHJOEbOUhopINVzEr-50">
          <mxGeometry width="50" height="50" relative="1" as="geometry">
            <mxPoint x="570" y="480.0000000000001" as="sourcePoint" />
            <mxPoint x="620" y="430" as="targetPoint" />
          </mxGeometry>
        </mxCell>
        <mxCell id="CJIQHJOEbOUhopINVzEr-52" value="" style="endArrow=none;html=1;rounded=0;entryX=1;entryY=0;entryDx=0;entryDy=0;" edge="1" parent="1" target="CJIQHJOEbOUhopINVzEr-50">
          <mxGeometry width="50" height="50" relative="1" as="geometry">
            <mxPoint x="656" y="450.0000000000001" as="sourcePoint" />
            <mxPoint x="596" y="520" as="targetPoint" />
          </mxGeometry>
        </mxCell>
        <mxCell id="CJIQHJOEbOUhopINVzEr-53" value="" style="endArrow=none;html=1;rounded=0;exitX=1;exitY=1;exitDx=0;exitDy=0;" edge="1" parent="1" source="CJIQHJOEbOUhopINVzEr-50">
          <mxGeometry width="50" height="50" relative="1" as="geometry">
            <mxPoint x="605" y="500" as="sourcePoint" />
            <mxPoint x="655" y="450.0000000000001" as="targetPoint" />
          </mxGeometry>
        </mxCell>
        <mxCell id="CJIQHJOEbOUhopINVzEr-54" value="F" style="text;html=1;align=center;verticalAlign=middle;resizable=0;points=[];autosize=1;strokeColor=none;fillColor=none;" vertex="1" parent="1">
          <mxGeometry x="690" y="490" width="20" height="20" as="geometry" />
        </mxCell>
        <mxCell id="CJIQHJOEbOUhopINVzEr-55" value="T" style="text;html=1;align=center;verticalAlign=middle;resizable=0;points=[];autosize=1;strokeColor=none;fillColor=none;" vertex="1" parent="1">
          <mxGeometry x="690" y="400" width="20" height="20" as="geometry" />
        </mxCell>
        <mxCell id="CJIQHJOEbOUhopINVzEr-59" value="" style="endArrow=none;html=1;rounded=0;exitX=1;exitY=0;exitDx=0;exitDy=0;" edge="1" parent="1" source="CJIQHJOEbOUhopINVzEr-50">
          <mxGeometry width="50" height="50" relative="1" as="geometry">
            <mxPoint x="360" y="400" as="sourcePoint" />
            <mxPoint x="720" y="420" as="targetPoint" />
          </mxGeometry>
        </mxCell>
        <mxCell id="CJIQHJOEbOUhopINVzEr-60" value="" style="endArrow=none;html=1;rounded=0;" edge="1" parent="1">
          <mxGeometry width="50" height="50" relative="1" as="geometry">
            <mxPoint x="695" y="480" as="sourcePoint" />
            <mxPoint x="720" y="480" as="targetPoint" />
          </mxGeometry>
        </mxCell>
        <mxCell id="CJIQHJOEbOUhopINVzEr-62" value="C1" style="rounded=0;whiteSpace=wrap;html=1;fillColor=#FFCCCC;" vertex="1" parent="1">
          <mxGeometry x="720" y="390" width="120" height="60" as="geometry" />
        </mxCell>
        <mxCell id="CJIQHJOEbOUhopINVzEr-63" value="C2" style="rounded=0;whiteSpace=wrap;html=1;fillColor=#FFCCCC;" vertex="1" parent="1">
          <mxGeometry x="720" y="460" width="120" height="60" as="geometry" />
        </mxCell>
        <mxCell id="CJIQHJOEbOUhopINVzEr-64" value="B3" style="rounded=0;whiteSpace=wrap;html=1;fillColor=#FFCCCC;" vertex="1" parent="1">
          <mxGeometry x="260" y="490" width="120" height="60" as="geometry" />
        </mxCell>
      </root>
    </mxGraphModel>
  </diagram>
</mxfile>
